<svg width="11" height="15" viewBox="0 0 11 15" fill="none" xmlns="http://www.w3.org/2000/svg">
<path d="M9.12947 7.87207C9.12374 6.79688 9.59926 5.98535 10.5618 5.3877C10.0232 4.59961 9.20967 4.16602 8.13546 4.08105C7.11853 3.99902 6.00707 4.6875 5.6003 4.6875C5.17061 4.6875 4.1852 4.11035 3.41176 4.11035C1.81332 4.13672 0.114624 5.41406 0.114624 8.0127C0.114624 8.78027 0.252124 9.57324 0.527124 10.3916C0.89379 11.4668 2.21723 14.1035 3.59796 14.0596C4.31983 14.042 4.82973 13.5352 5.76931 13.5352C6.68025 13.5352 7.1529 14.0596 7.95785 14.0596C9.35004 14.0391 10.5474 11.6426 10.8969 10.5645C9.0292 9.66504 9.12947 7.92774 9.12947 7.87207ZM7.50811 3.06152C8.29014 2.1123 8.21853 1.24805 8.19561 0.9375C7.50525 0.978516 6.70603 1.41797 6.25056 1.95996C5.74926 2.54004 5.45421 3.25781 5.51723 4.06641C6.26488 4.125 6.94665 3.73242 7.50811 3.06152Z" fill="black"/>
</svg>
